<?xml version="1.0" encoding="UTF-8" standalone="no"?>
<!-- Created with Inkscape (http://www.inkscape.org/) -->

<svg
   version="1.1"
   id="svg824"
   width="233"
   height="61"
   viewBox="0 0 233 61"
   sodipodi:docname="sfm_logo.svg"
   inkscape:version="1.1.1 (3bf5ae0d25, 2021-09-20)"
   xmlns:inkscape="http://www.inkscape.org/namespaces/inkscape"
   xmlns:sodipodi="http://sodipodi.sourceforge.net/DTD/sodipodi-0.dtd"
   xmlns="http://www.w3.org/2000/svg"
   xmlns:svg="http://www.w3.org/2000/svg">
  <defs
     id="defs828" />
  <sodipodi:namedview
     id="namedview826"
     pagecolor="#ffffff"
     bordercolor="#666666"
     borderopacity="1.0"
     inkscape:pageshadow="2"
     inkscape:pageopacity="0.0"
     inkscape:pagecheckerboard="0"
     showgrid="false"
     inkscape:zoom="3.804721"
     inkscape:cx="106.84095"
     inkscape:cy="61.371122"
     inkscape:window-width="2560"
     inkscape:window-height="1009"
     inkscape:window-x="-8"
     inkscape:window-y="-8"
     inkscape:window-maximized="1"
     inkscape:current-layer="g830" />
  <g
     inkscape:groupmode="layer"
     inkscape:label="Image"
     id="g830">
    <g
       inkscape:label="Ebene 1"
       id="layer1"
       transform="matrix(0.06903942,0,0,0.06903942,-0.64669465,-11.889408)"
       style="stroke-width:15.4501">
      <ellipse
         style="opacity:1;fill:#ad9b6e;fill-opacity:1;fill-rule:evenodd;stroke:#ad9b6e;stroke-width:16.3771;stroke-linecap:butt;stroke-linejoin:miter;stroke-miterlimit:4;stroke-dasharray:none;stroke-opacity:1"
         id="path3347"
         cx="446.37213"
         cy="396.92026"
         rx="83.054802"
         ry="84.064957" />
      <ellipse
         style="opacity:1;fill:#ad9b6e;fill-opacity:1;fill-rule:evenodd;stroke:#ad9b6e;stroke-width:17.2941;stroke-linecap:butt;stroke-linejoin:miter;stroke-miterlimit:4;stroke-dasharray:none;stroke-opacity:1"
         id="path3347-5"
         cx="240.51529"
         cy="535.80176"
         rx="88.020103"
         ry="88.454697" />
      <ellipse
         style="opacity:1;fill:#ad9b6e;fill-opacity:1;fill-rule:evenodd;stroke:#ad9b6e;stroke-width:17.2941;stroke-linecap:butt;stroke-linejoin:miter;stroke-miterlimit:4;stroke-dasharray:none;stroke-opacity:1"
         id="path3347-5-2"
         cx="574.89032"
         cy="780.79077"
         rx="88.020103"
         ry="88.454697" />
      <ellipse
         style="opacity:1;fill:#ad9b6e;fill-opacity:1;fill-rule:evenodd;stroke:#ad9b6e;stroke-width:17.2941;stroke-linecap:butt;stroke-linejoin:miter;stroke-miterlimit:4;stroke-dasharray:none;stroke-opacity:1"
         id="path3347-5-2-5"
         cx="318.33252"
         cy="780.80878"
         rx="88.020103"
         ry="88.454697" />
      <ellipse
         style="opacity:1;fill:#ad9b6e;fill-opacity:1;fill-rule:evenodd;stroke:#ad9b6e;stroke-width:17.2941;stroke-linecap:butt;stroke-linejoin:miter;stroke-miterlimit:4;stroke-dasharray:none;stroke-opacity:1"
         id="path3347-5-2-9"
         cx="652.69293"
         cy="535.88745"
         rx="88.020103"
         ry="88.454697" />
      <circle
         style="opacity:1;fill:#ad9b6e;fill-opacity:1;stroke:#ad9b6e;stroke-width:17.0494;stroke-miterlimit:4;stroke-dasharray:none;stroke-opacity:1"
         id="path4236"
         cx="446.67859"
         cy="608.25507"
         r="49.263958" />
      <path
         style="color:#000000;font-style:normal;font-variant:normal;font-weight:normal;font-stretch:normal;font-size:medium;line-height:normal;font-family:sans-serif;text-indent:0;text-align:start;text-decoration:none;text-decoration-line:none;text-decoration-style:solid;text-decoration-color:#000000;letter-spacing:normal;word-spacing:normal;text-transform:none;writing-mode:lr-tb;direction:ltr;baseline-shift:baseline;text-anchor:start;white-space:normal;clip-rule:nonzero;display:inline;overflow:visible;visibility:visible;opacity:1;isolation:auto;mix-blend-mode:normal;color-interpolation:sRGB;color-interpolation-filters:linearRGB;solid-color:#000000;solid-opacity:1;fill:#ad9b6e;fill-opacity:1;fill-rule:nonzero;stroke:none;stroke-width:1243.58;stroke-linecap:butt;stroke-linejoin:miter;stroke-miterlimit:4;stroke-dasharray:none;stroke-dashoffset:0;stroke-opacity:1;color-rendering:auto;image-rendering:auto;shape-rendering:auto;text-rendering:auto;enable-background:accumulate"
         d="m 900.06641,169.65234 -453.75196,0.36524 c -241.39522,0 -437.92382,196.66566 -437.92383,438.16992 0,241.50426 196.52861,438.1699 437.92383,438.1699 175.89612,0 328.97933,-103.66237 398.55499,-253.76264 L 1033.4824,353.14369 c 8.3473,-19.44831 7.2949,-33.96174 7.2949,-45.30971 0,-80.3554 -63.45512,-138.18164 -140.71089,-138.18164 z M 880.57227,227.875 c 50.71383,0 91.12304,40.42218 91.12304,91.20117 0,50.77899 -40.40921,91.20117 -91.12304,91.20117 -50.71384,0 -91.125,-40.42218 -91.125,-91.20117 0,-50.77899 40.41116,-91.20117 91.125,-91.20117 z m -434.25782,22.63281 c 197.86831,0 357.4336,159.64852 357.4336,357.67969 0,198.03117 -159.56529,357.67969 -357.4336,357.67969 -197.86831,0 -357.433591,-159.64852 -357.433591,-357.67969 0,-198.03117 159.565281,-357.67969 357.433591,-357.67969 z"
         id="path4238"
         inkscape:connector-curvature="0"
         sodipodi:nodetypes="ccsscsscssssssssss" />
    </g>
    <g
       aria-label="source
filmmaker"
       id="text8916"
       style="font-size:29.2493px;line-height:1.25">
      <path
         d="m 88.248046,21.258022 q -3.36367,0 -5.206375,-1.403966 -1.842706,-1.433216 -1.901205,-3.919407 h 3.948656 q 0,1.169972 0.877479,1.871956 0.906728,0.672733 2.310694,0.672733 1.169972,0 1.930454,-0.497238 0.789731,-0.526487 0.789731,-1.433215 0,-0.584986 -0.497238,-0.965227 -0.467989,-0.380241 -1.345468,-0.672734 -0.438739,-0.146247 -1.111473,-0.321742 -0.672734,-0.175496 -1.608712,-0.350992 -1.491714,-0.321742 -2.632437,-0.789731 -1.111473,-0.497238 -1.696459,-1.316219 -0.614235,-0.789731 -0.614235,-1.959703 0,-1.4917141 0.701983,-2.6031875 0.731232,-1.1114734 2.222947,-1.6964594 1.403966,-0.5557367 3.656162,-0.5557367 3.071177,0 4.767636,1.2284706 1.696459,1.2284706 1.901205,3.597664 H 90.792735 Q 90.704987,9.0610638 90.003004,8.593075 89.301021,8.0958369 87.955553,8.0958369 q -2.310695,0 -2.310695,1.4039664 0,0.5264877 0.380241,0.8774787 0.380241,0.350992 1.169972,0.614236 0.701983,0.263243 1.69646,0.438739 2.807932,0.555737 4.007154,1.140723 1.169972,0.584986 1.696459,1.403966 0.555737,0.789731 0.555737,2.018202 0,2.573938 -1.871955,3.919406 -1.842706,1.345468 -5.03088,1.345468 z"
         style="font-family:'M Ying Hei PRC W48 W7';-inkscape-font-specification:'M Ying Hei PRC W48 W7'"
         id="path12998" />
      <path
         d="m 104.92011,21.258022 q -1.78421,0 -3.24667,-0.584986 -1.43322,-0.584986 -2.456943,-1.637961 -1.023726,-1.052975 -1.579462,-2.51544 -0.526488,-1.462465 -0.526488,-3.217423 0,-1.842706 0.555737,-3.3051706 0.555737,-1.4917143 1.579462,-2.5154398 1.052974,-1.0529748 2.486194,-1.6087115 1.43321,-0.5557367 3.18817,-0.5557367 1.81346,0 3.24667,0.584986 1.46247,0.5557367 2.48619,1.6087115 1.02373,1.0529748 1.55022,2.5446891 0.55573,1.462465 0.55573,3.246672 0,1.784208 -0.55573,3.275922 -0.55574,1.462465 -1.60872,2.51544 -1.02372,1.023725 -2.48619,1.608711 -1.43321,0.555737 -3.18817,0.555737 z m 0,-3.129675 q 1.84271,0 2.74943,-1.25772 0.93598,-1.286969 0.93598,-3.568415 0,-2.369193 -0.93598,-3.5976636 -0.93597,-1.2577199 -2.77868,-1.2577199 -1.75496,0 -2.69093,1.2577199 -0.93598,1.2284706 -0.93598,3.5976636 0,2.310695 0.93598,3.568415 0.93597,1.25772 2.72018,1.25772 z"
         style="font-family:'M Ying Hei PRC W48 W7';-inkscape-font-specification:'M Ying Hei PRC W48 W7'"
         id="path13000" />
      <path
         d="m 120.94867,21.258022 q -2.95418,0 -4.24115,-1.491714 -1.25772,-1.520964 -1.25772,-4.650639 V 5.7266436 h 4.15341 v 8.5700454 q 0,1.754958 0.55573,2.720184 0.55574,0.965227 2.10595,0.965227 1.75496,0 2.48619,-0.994476 0.73123,-1.023725 0.73123,-3.305171 V 5.7266436 h 4.1534 V 20.848532 h -3.94865 v -2.10595 h -0.0877 q -1.55021,2.51544 -4.65064,2.51544 z"
         style="font-family:'M Ying Hei PRC W48 W7';-inkscape-font-specification:'M Ying Hei PRC W48 W7'"
         id="path13002" />
      <path
         d="m 136.74325,5.7266436 v 2.8079328 h 0.0585 q 0.61424,-1.4917143 1.93045,-2.339944 1.31622,-0.877479 2.89568,-0.877479 0.46799,0 0.90673,0.1462465 V 9.3243075 Q 141.80338,9.178061 141.0429,9.178061 q -4.0949,0 -4.0949,4.855384 v 6.815087 h -4.1534 V 5.7266436 Z"
         style="font-family:'M Ying Hei PRC W48 W7';-inkscape-font-specification:'M Ying Hei PRC W48 W7'"
         id="path13004" />
      <path
         d="m 151.10462,21.258022 q -1.66721,0 -3.07118,-0.555737 -1.40396,-0.584986 -2.42769,-1.608711 -0.99448,-1.023726 -1.57946,-2.427692 -0.55574,-1.433216 -0.55574,-3.158925 0,-1.871955 0.55574,-3.392918 0.55573,-1.520964 1.55021,-2.5739388 1.02373,-1.0822241 2.42769,-1.6379608 1.43322,-0.584986 3.18818,-0.584986 1.55021,0 2.80793,0.4094902 1.25772,0.4094902 2.1937,1.169972 0.93597,0.7312325 1.46246,1.7842073 0.55574,1.0529748 0.64349,2.3691931 h -4.06566 q -0.40949,-2.6031875 -3.07117,-2.6031875 -1.66721,0 -2.60319,1.3454678 -0.93598,1.3454677 -0.93598,3.5684147 0,2.135199 0.87748,3.451417 0.90673,1.316219 2.57394,1.316219 2.83718,0 3.30517,-3.071177 h 4.00715 q -0.40949,3.012678 -2.31069,4.62139 -1.90121,1.579462 -4.97238,1.579462 z"
         style="font-family:'M Ying Hei PRC W48 W7';-inkscape-font-specification:'M Ying Hei PRC W48 W7'"
         id="path13006" />
      <path
         d="m 167.71821,21.258022 q -2.10595,0 -3.86091,-0.877479 -1.75496,-0.906728 -2.80793,-2.778684 -1.05298,-1.842705 -1.05298,-4.299647 0,-1.140722 0.26325,-2.193697 0.29249,-1.082224 0.78973,-1.9889526 0.52648,-0.9359776 1.25772,-1.6672101 0.73123,-0.7312325 1.60871,-1.1992213 1.78421,-0.9359776 3.80241,-0.9359776 2.1352,0 3.80241,0.9944762 1.69646,0.9652269 2.63243,2.8664314 0.93598,1.842706 0.93598,4.358146 0,0.116997 0,0.321742 0,0.175496 -0.0293,0.43874 h -10.90999 q 0.0585,1.842705 0.93598,2.837182 0.90673,0.994476 2.74943,0.994476 1.14073,0 2.07671,-0.555737 0.96522,-0.584986 1.22847,-1.403966 h 3.65616 q -1.63796,5.118627 -7.07833,5.089378 z m 3.18817,-9.59377 q -0.29249,-1.6964599 -1.08222,-2.4569417 -0.76048,-0.7604818 -2.2522,-0.7604818 -1.52096,0 -2.39844,0.877479 -0.87748,0.8482295 -1.02373,2.3399445 h 6.75659 z"
         style="font-family:'M Ying Hei PRC W48 W7';-inkscape-font-specification:'M Ying Hei PRC W48 W7'"
         id="path13008" />
      <path
         d="m 80.292236,45.346502 v -2.778684 h 2.486191 v -1.111473 q 0,-2.222947 1.316218,-3.422168 1.345468,-1.228471 3.743911,-1.228471 0.263243,0 0.789731,0.02925 0.555737,0.02925 1.403966,0.08775 v 3.100426 q -0.81898,-0.08775 -1.491714,-0.08775 -0.906728,0 -1.25772,0.40949 -0.350992,0.380241 -0.350992,1.345468 v 0.877479 h 2.866432 v 2.778684 h -2.866432 v 12.343204 h -4.1534 V 45.346502 Z m 15.589877,-2.778684 v 15.121888 h -4.1534 V 42.567818 Z m 0,-5.762112 v 3.422168 h -4.1534 v -3.422168 z"
         style="font-family:'M Ying Hei PRC W48 W7';-inkscape-font-specification:'M Ying Hei PRC W48 W7'"
         id="path13010" />
      <path
         d="m 103.42842,36.805706 v 20.884 h -4.153399 v -20.884 z"
         style="font-family:'M Ying Hei PRC W48 W7';-inkscape-font-specification:'M Ying Hei PRC W48 W7'"
         id="path13012" />
      <path
         d="m 110.74073,42.567818 v 2.047451 h 0.0585 q 1.72571,-2.456941 4.62139,-2.456941 3.30517,0 4.41664,2.51544 1.72571,-2.51544 4.59214,-2.51544 2.83718,0 4.1534,1.433216 1.34547,1.403966 1.34547,3.948655 v 10.149507 h -4.1534 v -8.74554 q 0,-1.988953 -0.61423,-2.749435 -0.58499,-0.760481 -1.93046,-0.760481 -2.77868,0 -2.77868,3.802409 v 8.453047 h -4.1534 V 48.76867 q 0,-1.930454 -0.61424,-2.632437 -0.58498,-0.701983 -1.9012,-0.701983 -1.22847,0 -2.0182,0.935977 -0.78974,0.935978 -0.78974,2.51544 v 8.804039 h -4.1534 V 42.567818 Z"
         style="font-family:'M Ying Hei PRC W48 W7';-inkscape-font-specification:'M Ying Hei PRC W48 W7'"
         id="path13014" />
      <path
         d="m 137.24054,42.567818 v 2.047451 h 0.0585 q 1.72571,-2.456941 4.62139,-2.456941 3.30517,0 4.41664,2.51544 1.72571,-2.51544 4.59214,-2.51544 2.83719,0 4.1534,1.433216 1.34547,1.403966 1.34547,3.948655 v 10.149507 h -4.1534 v -8.74554 q 0,-1.988953 -0.61423,-2.749435 -0.58499,-0.760481 -1.93046,-0.760481 -2.77868,0 -2.77868,3.802409 v 8.453047 h -4.1534 V 48.76867 q 0,-1.930454 -0.61424,-2.632437 -0.58498,-0.701983 -1.9012,-0.701983 -1.22847,0 -2.0182,0.935977 -0.78973,0.935978 -0.78973,2.51544 v 8.804039 h -4.1534 V 42.567818 Z"
         style="font-family:'M Ying Hei PRC W48 W7';-inkscape-font-specification:'M Ying Hei PRC W48 W7'"
         id="path13016" />
      <path
         d="m 164.20834,58.099197 q -2.36919,0 -3.77316,-1.199222 -1.37471,-1.199221 -1.37471,-3.33442 0,-1.052975 0.29249,-1.842706 0.32174,-0.81898 1.02372,-1.403966 0.73124,-0.584986 1.93046,-0.935978 1.19922,-0.380241 2.95418,-0.555737 1.25772,-0.116997 2.04745,-0.292493 0.81898,-0.175495 1.14072,-0.38024 0.67274,-0.409491 0.67274,-1.199222 0,-1.023725 -0.61424,-1.520963 -0.61423,-0.497238 -2.04745,-0.497238 -1.31622,0 -1.98895,0.526487 -0.67274,0.526487 -0.78973,1.754958 h -4.1534 q 0.14624,-2.486191 2.04745,-3.77316 1.9012,-1.286969 5.08937,-1.286969 6.61035,0.02925 6.61035,4.299647 v 8.014308 q 0,2.193698 0.52648,3.217423 h -4.2119 q -0.11699,-0.350991 -0.20474,-0.701983 -0.0585,-0.380241 -0.0877,-0.760482 -1.8427,1.871956 -5.08938,1.871956 z m -0.99447,-4.709138 q 0,0.643485 0.43874,1.111474 0.43874,0.438739 1.08222,0.672734 0.67273,0.204745 1.43322,0.146246 0.76048,-0.0585 1.40396,-0.438739 0.67274,-0.380241 1.11148,-1.111474 0.43874,-0.731232 0.43874,-1.871955 v -1.608712 q -0.52649,0.526488 -2.51544,0.731233 -1.75496,0.204745 -2.57394,0.731232 -0.81898,0.497239 -0.81898,1.637961 z"
         style="font-family:'M Ying Hei PRC W48 W7';-inkscape-font-specification:'M Ying Hei PRC W48 W7'"
         id="path13018" />
      <path
         d="m 181.02668,36.805706 v 11.202482 l 5.23562,-5.44037 h 4.91389 l -5.70362,5.557367 6.3471,9.564521 h -5.03088 l -4.1534,-6.756588 -1.60871,1.550213 v 5.206375 h -4.1534 v -20.884 z"
         style="font-family:'M Ying Hei PRC W48 W7';-inkscape-font-specification:'M Ying Hei PRC W48 W7'"
         id="path13020" />
      <path
         d="m 199.86315,58.099197 q -2.10595,0 -3.86091,-0.877479 -1.75495,-0.906729 -2.80793,-2.778684 -1.05297,-1.842706 -1.05297,-4.299647 0,-1.140723 0.26324,-2.193698 0.29249,-1.082224 0.78973,-1.988952 0.52649,-0.935978 1.25772,-1.66721 0.73123,-0.731233 1.60871,-1.199221 1.78421,-0.935978 3.80241,-0.935978 2.1352,0 3.80241,0.994476 1.69646,0.965227 2.63244,2.866432 0.93597,1.842706 0.93597,4.358145 0,0.116998 0,0.321743 0,0.175495 -0.0292,0.438739 h -10.90999 q 0.0585,1.842706 0.93597,2.837182 0.90673,0.994476 2.74944,0.994476 1.14072,0 2.0767,-0.555736 0.96523,-0.584986 1.22847,-1.403967 h 3.65616 q -1.63796,5.118628 -7.07833,5.089379 z m 3.18817,-9.593771 q -0.29249,-1.696459 -1.08222,-2.456941 -0.76048,-0.760482 -2.2522,-0.760482 -1.52096,0 -2.39844,0.877479 -0.87748,0.84823 -1.02372,2.339944 h 6.75658 z"
         style="font-family:'M Ying Hei PRC W48 W7';-inkscape-font-specification:'M Ying Hei PRC W48 W7'"
         id="path13022" />
      <path
         d="m 213.61031,42.567818 v 2.807933 h 0.0585 q 0.61423,-1.491714 1.93045,-2.339944 1.31622,-0.877479 2.89568,-0.877479 0.46799,0 0.90673,0.146247 v 3.860907 q -0.73123,-0.146246 -1.49171,-0.146246 -4.09491,0 -4.09491,4.855383 v 6.815087 h -4.1534 V 42.567818 Z"
         style="font-family:'M Ying Hei PRC W48 W7';-inkscape-font-specification:'M Ying Hei PRC W48 W7'"
         id="path13024" />
    </g>
  </g>
</svg>
